<?xml version="1.0" encoding="UTF-8"?>
<svg version="1.1" xmlns="http://www.w3.org/2000/svg" width="470" height="114">
<path d="M0 0 C155.1 0 310.2 0 470 0 C470 37.62 470 75.24 470 114 C314.9 114 159.8 114 0 114 C0 76.38 0 38.76 0 0 Z " fill="#FDFDFD" transform="translate(0,0)"/>
<path d="M0 0 C4.83805097 4.78712412 5.51769441 10.9080603 5.5625 17.375 C5.41819464 26.01917407 3.5765674 32.98358611 -1.125 40.3125 C-9.86063402 48.47841876 -18.99158646 51.79270163 -30.84375 51.4375 C-38.78162309 50.85490381 -45.43936257 47.01472037 -50.9375 41.375 C-56.13389589 34.73940623 -59.96845926 26.52244146 -59 18 C-44.18016109 13.00805426 -44.18016109 13.00805426 -39 14 C-35.77820034 17.42364828 -34.06006207 20.80009738 -32.421875 25.17578125 C-31.76445312 26.91118164 -31.76445312 26.91118164 -31.09375 28.68164062 C-30.6503125 29.87982422 -30.206875 31.07800781 -29.75 32.3125 C-29.06164062 34.1387793 -29.06164062 34.1387793 -28.359375 36.00195312 C-27.23133149 38.9983187 -26.11187972 41.99760707 -25 45 C-25.27263672 44.21351074 -25.54527344 43.42702148 -25.82617188 42.61669922 C-26.83988018 39.67824477 -27.84526528 36.73710751 -28.84521484 33.79394531 C-29.49074391 31.90212635 -30.14569688 30.0135315 -30.80078125 28.125 C-31.20683594 26.92617188 -31.61289063 25.72734375 -32.03125 24.4921875 C-32.40830078 23.39245605 -32.78535156 22.29272461 -33.17382812 21.15966797 C-34.01625813 17.93782131 -34.25378983 15.31370136 -34 12 C-29.9918011 7.3552048 -22.68497536 5.72817593 -17.0390625 3.984375 C-13.29847381 2.77277044 -9.74170727 1.24419876 -6.15625 -0.36328125 C-3.59544799 -1.11946011 -2.44087523 -1.06410057 0 0 Z " fill="#A2C432" transform="translate(233,24)"/>
<path d="M0 0 C0.01030746 0.59690643 0.02061493 1.19381287 0.03123474 1.80880737 C0.13917388 8.00530229 0.25378188 14.20164807 0.37231445 20.39794922 C0.41570376 22.71237069 0.45737584 25.026825 0.49731445 27.34130859 C0.55492032 30.66253573 0.61864251 33.98359692 0.68359375 37.3046875 C0.70030624 38.34430634 0.71701874 39.38392517 0.73423767 40.45504761 C0.7641555 41.89631516 0.7641555 41.89631516 0.79467773 43.36669922 C0.81799416 44.63910965 0.81799416 44.63910965 0.84178162 45.93722534 C0.87429958 48.06318305 0.87429958 48.06318305 2 50 C2.99 50.33 3.98 50.66 5 51 C5 51.66 5 52.32 5 53 C0.38 53 -4.24 53 -9 53 C-9.33 52.01 -9.66 51.02 -10 50 C-10.66 50.66 -11.32 51.32 -12 52 C-15.15346605 54.1023107 -17.21503835 54.65999783 -21.0078125 54.4453125 C-24.65863679 53.62924589 -26.52631221 51.70379828 -29 49 C-32.87620016 42.79807974 -32.78586948 36.15229528 -32 29 C-30.71377255 24.39283502 -28.7765656 21.70596872 -25.25 18.5 C-20.33205856 16.23018088 -16.20308572 16.26563809 -11 18 C-10.91902676 15.72975032 -10.86082296 13.45867925 -10.8125 11.1875 C-10.77769531 9.92292969 -10.74289063 8.65835937 -10.70703125 7.35546875 C-10.69172579 4.03403555 -10.69172579 4.03403555 -12.51171875 2.05078125 C-13.00285156 1.70402344 -13.49398437 1.35726563 -14 1 C-11.85420251 0.83287252 -9.70836101 0.66631 -7.5625 0.5 C-5.77005859 0.36078125 -5.77005859 0.36078125 -3.94140625 0.21875 C-1 0 -1 0 0 0 Z " fill="#3E3E3E" transform="translate(86,16)"/>
<path d="M0 0 C3.27393782 3.46403488 4.95686468 6.87494219 6.578125 11.32421875 C7.23554688 13.11375977 7.23554688 13.11375977 7.90625 14.93945312 C8.3496875 16.17630859 8.793125 17.41316406 9.25 18.6875 C9.71274218 19.9488613 10.17627674 21.2099322 10.640625 22.47070312 C14 31.69398717 14 31.69398717 14 34 C14.66 34 15.32 34 16 34 C16 34.99 16 35.98 16 37 C5.6971751 37.98644068 -2.06802189 35.88899295 -10.1328125 29.2421875 C-15.726016 23.45527998 -20.27929367 14.93536013 -20.3125 6.75 C-20.209375 5.8425 -20.10625 4.935 -20 4 C-5.18016109 -0.99194574 -5.18016109 -0.99194574 0 0 Z " fill="#FCBB5D" transform="translate(194,38)"/>
<path d="M0 0 C0.33 10.89 0.66 21.78 1 33 C1.99 33.33 2.98 33.66 4 34 C4 34.66 4 35.32 4 36 C-0.62 36 -5.24 36 -10 36 C-10.33 35.01 -10.66 34.02 -11 33 C-11.825 33.66 -12.65 34.32 -13.5 35 C-17.4781731 37.63330607 -20.29401891 37.5975849 -25 37 C-28.44312714 34.8755173 -29.71617547 33.85147359 -31 30 C-31.14986411 28.0093556 -31.24828038 26.01464609 -31.31640625 24.01953125 C-31.35830078 22.85615234 -31.40019531 21.69277344 -31.44335938 20.49414062 C-31.48267578 19.27919922 -31.52199219 18.06425781 -31.5625 16.8125 C-31.60568359 15.58595703 -31.64886719 14.35941406 -31.69335938 13.09570312 C-31.7995309 10.06391619 -31.90157952 7.03204685 -32 4 C-32.99 3.67 -33.98 3.34 -35 3 C-35 2.34 -35 1.68 -35 1 C-30.38 1 -25.76 1 -21 1 C-20.93941406 3.14242187 -20.87882812 5.28484375 -20.81640625 7.4921875 C-20.75462185 9.56400095 -20.69123212 11.63575947 -20.62768555 13.70751953 C-20.58433769 15.1488762 -20.54266248 16.59028418 -20.50268555 18.03173828 C-20.44497912 20.10204541 -20.38128629 22.17209432 -20.31640625 24.2421875 C-20.27974854 25.4885498 -20.24309082 26.73491211 -20.20532227 28.01904297 C-20.19710521 30.92636942 -20.19710521 30.92636942 -19 33 C-16.62625139 33.33425735 -16.62625139 33.33425735 -14 33 C-10.99267057 29.94798514 -10.61619588 27.63225457 -10.6015625 23.4296875 C-10.59769531 22.36878906 -10.59382813 21.30789062 -10.58984375 20.21484375 C-10.60144531 19.11269531 -10.61304687 18.01054688 -10.625 16.875 C-10.60759766 15.21017578 -10.60759766 15.21017578 -10.58984375 13.51171875 C-10.59564453 11.92423828 -10.59564453 11.92423828 -10.6015625 10.3046875 C-10.60494629 9.33515137 -10.60833008 8.36561523 -10.61181641 7.36669922 C-10.80396729 6.19518311 -10.80396729 6.19518311 -11 5 C-11.99 4.34 -12.98 3.68 -14 3 C-14 2.34 -14 1.68 -14 1 C-12.04175306 0.83232136 -10.08339945 0.66588795 -8.125 0.5 C-6.48917969 0.36078125 -6.48917969 0.36078125 -4.8203125 0.21875 C-3.21670436 0.09437042 -1.60842449 0 0 0 Z " fill="#3D3D3D" transform="translate(46,33)"/>
<path d="M0 0 C0.33 1.32 0.66 2.64 1 4 C1.66 3.34 2.32 2.68 3 2 C6.82537188 -0.55024792 9.52393623 -0.76861701 14 0 C18.56944444 2.13888889 18.56944444 2.13888889 20 5 C20.15469367 7.17674783 20.25002106 9.3578348 20.31640625 11.5390625 C20.35830078 12.84101562 20.40019531 14.14296875 20.44335938 15.484375 C20.48317299 16.86458045 20.52288522 18.24478883 20.5625 19.625 C20.60569407 21.01303415 20.64930865 22.40105528 20.69335938 23.7890625 C20.79972 27.19260256 20.90174714 30.59621778 21 34 C22.32 34 23.64 34 25 34 C25 34.66 25 35.32 25 36 C19.06 36 13.12 36 7 36 C7 35.34 7 34.68 7 34 C7.99 34 8.98 34 10 34 C10 24.1 10 14.2 10 4 C4.49307646 3.4813769 4.49307646 3.4813769 2.14331055 5.1262207 C0.50741551 7.80730001 0.66129213 9.85496251 0.70703125 12.98046875 C0.7215332 14.72553711 0.7215332 14.72553711 0.73632812 16.50585938 C0.76146484 17.72080078 0.78660156 18.93574219 0.8125 20.1875 C0.82603516 21.41404297 0.83957031 22.64058594 0.85351562 23.90429688 C0.88891259 26.93663664 0.9382924 29.96809996 1 33 C1.66 33.33 2.32 33.66 3 34 C3 34.66 3 35.32 3 36 C-2.61 36 -8.22 36 -14 36 C-14 35.34 -14 34.68 -14 34 C-13.01 34 -12.02 34 -11 34 C-10.92591413 29.90666095 -10.8714296 25.81358067 -10.83520508 21.71972656 C-10.82010642 20.32675378 -10.79962556 18.93382862 -10.77368164 17.54101562 C-10.73734878 15.54057115 -10.72188808 13.53978173 -10.70703125 11.5390625 C-10.6913208 10.33459473 -10.67561035 9.13012695 -10.65942383 7.88916016 C-10.77181396 6.9357373 -10.8842041 5.98231445 -11 5 C-11.99 4.34 -12.98 3.68 -14 3 C-14 2.34 -14 1.68 -14 1 C-12.04175306 0.83232136 -10.08339945 0.66588795 -8.125 0.5 C-6.48917969 0.36078125 -6.48917969 0.36078125 -4.8203125 0.21875 C-3.21670436 0.09437042 -1.60842449 0 0 0 Z " fill="#3B3B3B" transform="translate(143,33)"/>
<path d="M0 0 C2.2433866 1.46829926 3.77335345 2.76155065 4.98046875 5.17578125 C5.13457981 7.20652895 5.23029328 9.24184546 5.296875 11.27734375 C5.33876953 12.4890625 5.38066406 13.70078125 5.42382812 14.94921875 C5.46314453 16.22023438 5.50246094 17.49125 5.54296875 18.80078125 C5.58615234 20.07953125 5.62933594 21.35828125 5.67382812 22.67578125 C5.78016761 25.84233473 5.88219708 29.00896878 5.98046875 32.17578125 C6.97046875 32.17578125 7.96046875 32.17578125 8.98046875 32.17578125 C8.98046875 32.83578125 8.98046875 33.49578125 8.98046875 34.17578125 C6.57501237 35.37850944 5.03049922 35.27649597 2.35546875 35.23828125 C1.12957031 35.22474609 1.12957031 35.22474609 -0.12109375 35.2109375 C-0.74757813 35.19933594 -1.3740625 35.18773437 -2.01953125 35.17578125 C-2.67953125 33.85578125 -3.33953125 32.53578125 -4.01953125 31.17578125 C-4.82390625 31.83578125 -5.62828125 32.49578125 -6.45703125 33.17578125 C-10.45426169 35.8342718 -14.36038161 36.03334769 -19.01953125 35.17578125 C-21.58203125 33.61328125 -21.58203125 33.61328125 -23.01953125 31.17578125 C-23.59945658 27.18879458 -23.57941835 25.06181617 -21.41015625 21.62890625 C-18.54782993 18.69174786 -16.12293707 17.71197329 -12.26953125 16.36328125 C-11.0990625 15.94433594 -9.92859375 15.52539062 -8.72265625 15.09375 C-7.830625 14.79082031 -6.93859375 14.48789062 -6.01953125 14.17578125 C-5.99265846 12.36336073 -5.9731941 10.55082892 -5.95703125 8.73828125 C-5.93962891 7.22427734 -5.93962891 7.22427734 -5.921875 5.6796875 C-5.73340449 3.23557058 -5.73340449 3.23557058 -7.01953125 2.17578125 C-9.34771089 1.80817394 -11.68136975 1.47336544 -14.01953125 1.17578125 C-13.50390625 1.71203125 -12.98828125 2.24828125 -12.45703125 2.80078125 C-11.01953125 5.17578125 -11.01953125 5.17578125 -11.33203125 8.42578125 C-11.55890625 9.33328125 -11.78578125 10.24078125 -12.01953125 11.17578125 C-15.39453125 11.80078125 -15.39453125 11.80078125 -19.01953125 12.17578125 C-21.01953125 10.17578125 -21.01953125 10.17578125 -21.45703125 7.30078125 C-21.01953125 4.17578125 -21.01953125 4.17578125 -18.70703125 1.86328125 C-13.35698368 -1.49605095 -5.9694386 -2.43626991 0 0 Z " fill="#363636" transform="translate(117.01953125,33.82421875)"/>
<path d="M0 0 C2.6875 1.6875 2.6875 1.6875 5.6875 4.6875 C6.0175 7.6575 6.3475 10.6275 6.6875 13.6875 C0.4175 13.6875 -5.8525 13.6875 -12.3125 13.6875 C-11.9103125 16.5646875 -11.9103125 16.5646875 -11.5 19.5 C-11.34917969 20.57894531 -11.19835937 21.65789063 -11.04296875 22.76953125 C-10.28681267 25.79011195 -9.87088151 26.96402155 -7.3125 28.6875 C-5.36311295 29.08546155 -5.36311295 29.08546155 -3.3125 28.9375 C-2.2915625 28.91429687 -2.2915625 28.91429687 -1.25 28.890625 C0.90364892 28.73522119 0.90364892 28.73522119 3.6875 27.6875 C4.0175 26.6975 4.3475 25.7075 4.6875 24.6875 C5.0175 25.6775 5.3475 26.6675 5.6875 27.6875 C4.54296875 29.4765625 4.54296875 29.4765625 2.875 31.3125 C2.33230469 31.92351562 1.78960937 32.53453125 1.23046875 33.1640625 C-1.40872091 35.76984469 -3.45764211 35.89622379 -7.0625 36 C-11.95521786 35.92949974 -14.63293315 35.10424064 -18.3125 31.6875 C-23.07736019 26.0449024 -22.91255784 20.45713195 -22.69140625 13.23046875 C-22.1204335 7.89157925 -20.99134779 4.93908852 -16.76953125 1.390625 C-11.32244366 -2.24907655 -6.10799576 -2.42014926 0 0 Z " fill="#3A3A3A" transform="translate(453.3125,34.3125)"/>
<path d="M0 0 C3.47309504 2.56347491 4.35691269 4.85144089 5.625 8.9375 C5.625 10.5875 5.625 12.2375 5.625 13.9375 C-0.645 13.9375 -6.915 13.9375 -13.375 13.9375 C-12.52038193 21.13048802 -12.52038193 21.13048802 -9.6875 27.625 C-6.36057894 29.51325249 -4.13306714 29.47436673 -0.375 28.9375 C1.93877147 27.04165891 1.93877147 27.04165891 3.625 24.9375 C4.285 24.9375 4.945 24.9375 5.625 24.9375 C4.22966338 29.37720742 2.06371468 31.84265679 -1.375 34.9375 C-5.11803616 36.80901808 -9.29926833 36.47442274 -13.375 35.9375 C-18.72512777 33.63892659 -21.1855556 30.29232883 -23.375 24.9375 C-23.7734375 21.5 -23.7734375 21.5 -23.75 17.9375 C-23.75773437 16.761875 -23.76546875 15.58625 -23.7734375 14.375 C-23.25649742 9.91512478 -21.92353712 6.59636547 -18.83984375 3.29296875 C-12.55324073 -1.51443356 -7.66924267 -2.41439121 0 0 Z " fill="#3C3C3C" transform="translate(299.375,34.0625)"/>
<path d="M0 0 C1.05272095 0.01027222 1.05272095 0.01027222 2.12670898 0.02075195 C7.93500963 0.2000578 12.25527488 1.33404813 17.125 4.4375 C17.8159375 4.86933594 18.506875 5.30117187 19.21875 5.74609375 C21.1875 7.0625 21.1875 7.0625 24.125 9.4375 C24.125 10.0975 24.125 10.7575 24.125 11.4375 C20.39360322 12.73098973 16.65825376 14.01227184 12.91894531 15.28271484 C11.02712635 15.92824391 9.1385315 16.58319688 7.25 17.23828125 C5.45175781 17.84736328 5.45175781 17.84736328 3.6171875 18.46875 C2.51745605 18.84580078 1.41772461 19.22285156 0.28466797 19.61132812 C-2.93697594 20.45370511 -5.56149634 20.67965216 -8.875 20.4375 C-11.78388713 18.43927799 -12.82952778 15.7145113 -14.125 12.5 C-14.48078125 11.64535156 -14.8365625 10.79070313 -15.203125 9.91015625 C-16.27969464 5.9481296 -16.27969464 5.9481296 -14.875 3.4375 C-9.96550439 0.68293567 -5.63051143 -0.08476622 0 0 Z " fill="#18549A" transform="translate(205.875,10.5625)"/>
<path d="M0 0 C2.4375 2.4375 2.4375 2.4375 3.5 6 C3.4375 9.4375 3.4375 9.4375 2.3125 11.375 C-0.19897631 12.79816991 -1.71753228 12.86424516 -4.5625 12.4375 C-6.4375 11.3125 -6.4375 11.3125 -7.5625 9.4375 C-7.25 6.25 -7.25 6.25 -6.5625 3.4375 C-5.5725 3.1075 -4.5825 2.7775 -3.5625 2.4375 C-3.5625 1.7775 -3.5625 1.1175 -3.5625 0.4375 C-6.54818778 0.87801131 -8.83700542 1.2494639 -11.5625 2.4375 C-15.50287742 8.10179254 -15.27749942 14.73321976 -14.5625 21.4375 C-13.07624788 25.28665157 -13.07624788 25.28665157 -10.5625 28.4375 C-4.73667606 28.77517276 -4.73667606 28.77517276 0.4375 26.4375 C0.7675 25.7775 1.0975 25.1175 1.4375 24.4375 C2.0975 24.4375 2.7575 24.4375 3.4375 24.4375 C2.04216338 28.87720742 -0.12378532 31.34265679 -3.5625 34.4375 C-7.03620107 36.17435053 -10.76440812 35.89865112 -14.5625 35.4375 C-19.5335149 32.90509618 -23.05680567 29.44888866 -25.5625 24.4375 C-26.23843911 17.07942002 -26.77963683 10.08152448 -22.1015625 3.9921875 C-15.83218137 -2.34084217 -8.20652077 -3.59935122 0 0 Z " fill="#3A3A3A" transform="translate(422.5625,34.5625)"/>
<path d="M0 0 C0.66 -0.33 1.32 -0.66 2 -1 C2 2.96 2 6.92 2 11 C1.34 11 0.68 11 0 11 C-0.268125 9.88625 -0.53625 8.7725 -0.8125 7.625 C-1.65809019 3.78159049 -1.65809019 3.78159049 -5 2 C-8.12521833 1.83300768 -8.12521833 1.83300768 -11 2 C-11.95020416 4.239835 -11.95020416 4.239835 -12 7 C-8.66126971 11.22905836 -4.18951383 14.23928686 0.109375 17.44921875 C2.28259433 19.23179741 2.89246959 20.21810029 3.2734375 22.98828125 C3.46787964 27.43801478 3.49796372 29.35399301 0.6875 33 C-3.63550877 36.2171228 -7.74845988 36.57498614 -13 36 C-15.49295606 35.19400669 -17.6453202 34.1773399 -20 33 C-20 33.66 -20 34.32 -20 35 C-20.66 35 -21.32 35 -22 35 C-22 30.71 -22 26.42 -22 22 C-21.34 22 -20.68 22 -20 22 C-19.72736328 22.93972656 -19.72736328 22.93972656 -19.44921875 23.8984375 C-19.19785156 24.71570313 -18.94648438 25.53296875 -18.6875 26.375 C-18.44386719 27.18710937 -18.20023438 27.99921875 -17.94921875 28.8359375 C-17.08631815 31.33184629 -17.08631815 31.33184629 -14 33 C-10.87478167 33.16699232 -10.87478167 33.16699232 -8 33 C-7.55545581 29.71547803 -7.55545581 29.71547803 -8 26 C-10.25981558 23.18501502 -10.25981558 23.18501502 -13.3125 20.875 C-17.02150191 17.83992131 -19.92087509 15.37040542 -22 11 C-22.08184146 6.41687812 -21.48570354 4.57070167 -18.5 1.0625 C-13.00914756 -2.96324518 -6.24505844 -1.06622949 0 0 Z " fill="#3B3B3B" transform="translate(267,34)"/>
<path d="M0 0 C0.01030746 0.59690643 0.02061493 1.19381287 0.03123474 1.80880737 C0.13917388 8.00530229 0.25378188 14.20164807 0.37231445 20.39794922 C0.41570376 22.71237069 0.45737584 25.026825 0.49731445 27.34130859 C0.55492032 30.66253573 0.61864251 33.98359692 0.68359375 37.3046875 C0.70030624 38.34430634 0.71701874 39.38392517 0.73423767 40.45504761 C0.75418289 41.41589264 0.77412811 42.37673767 0.79467773 43.36669922 C0.81022202 44.21497284 0.8257663 45.06324646 0.84178162 45.93722534 C0.87429958 48.06318305 0.87429958 48.06318305 2 50 C3.485 50.495 3.485 50.495 5 51 C5 51.66 5 52.32 5 53 C0.38 53 -4.24 53 -9 53 C-9.96368437 47.42991371 -10.07485389 42.13107103 -9.95703125 36.48828125 C-9.93466283 34.6608179 -9.9132053 32.83334321 -9.89257812 31.00585938 C-9.85537184 28.14836755 -9.81206629 25.29145871 -9.75317383 22.43432617 C-9.69876757 19.66055755 -9.66962837 16.88744919 -9.64453125 14.11328125 C-9.62074905 13.25906082 -9.59696686 12.40484039 -9.57246399 11.5247345 C-9.51442346 6.59049223 -9.51442346 6.59049223 -12.0222168 2.43041992 C-12.67488525 1.95838135 -13.32755371 1.48634277 -14 1 C-11.85420251 0.83287252 -9.70836101 0.66631 -7.5625 0.5 C-5.77005859 0.36078125 -5.77005859 0.36078125 -3.94140625 0.21875 C-1 0 -1 0 0 0 Z " fill="#343434" transform="translate(86,16)"/>
<path d="M0 0 C6.27 0 12.54 0 19 0 C19 0.66 19 1.32 19 2 C17.35 2 15.7 2 14 2 C16.64 8.93 19.28 15.86 22 23 C25.44371968 15.84217138 25.44371968 15.84217138 27 8.6875 C27.103125 7.88699219 27.20625 7.08648437 27.3125 6.26171875 C27.14003706 3.33514195 27.14003706 3.33514195 23 0 C26.96 0 30.92 0 35 0 C34.154375 1.5675 33.30875 3.135 32.4375 4.75 C28.04481929 13.4830676 25.08092282 22.7412977 22 32 C21.67 32.99 21.34 33.98 21 35 C19.35 35 17.7 35 16 35 C13.47023515 29.69722368 11.11979209 24.36243765 8.9921875 18.88671875 C8.46818359 17.5423877 8.46818359 17.5423877 7.93359375 16.17089844 C7.23262505 14.36092484 6.53978924 12.54777871 5.85546875 10.73144531 C5.52933594 9.8906543 5.20320313 9.04986328 4.8671875 8.18359375 C4.57956543 7.42618896 4.29194336 6.66878418 3.99560547 5.88842773 C3.01579151 3.66578997 3.01579151 3.66578997 0 2 C0 1.34 0 0.68 0 0 Z " fill="#3A3A3A" transform="translate(338,34)"/>
<path d="M0 0 C0.66 1.98 1.32 3.96 2 6 C1.67 6.33 1.34 6.66 1 7 C0.91241997 8.99964982 0.89303424 11.0023611 0.90234375 13.00390625 C0.90556641 14.21884766 0.90878906 15.43378906 0.91210938 16.68554688 C0.92048828 17.96494141 0.92886719 19.24433594 0.9375 20.5625 C0.94201172 21.84576172 0.94652344 23.12902344 0.95117188 24.45117188 C0.96300455 27.63416022 0.97948932 30.81705762 1 34 C2.65 34 4.3 34 6 34 C6 34.66 6 35.32 6 36 C-0.6 36 -7.2 36 -14 36 C-14 35.34 -14 34.68 -14 34 C-12.515 33.505 -12.515 33.505 -11 33 C-10.92590599 29.04907941 -10.87142594 25.09842706 -10.83520508 21.14697266 C-10.81267749 19.14080626 -10.7745643 17.13483474 -10.73632812 15.12890625 C-10.72666016 13.87207031 -10.71699219 12.61523438 -10.70703125 11.3203125 C-10.68346558 9.57645264 -10.68346558 9.57645264 -10.65942383 7.79736328 C-10.77181396 6.8742334 -10.8842041 5.95110352 -11 5 C-11.99 4.34 -12.98 3.68 -14 3 C-14 2.34 -14 1.68 -14 1 C-12.04175306 0.83232136 -10.08339945 0.66588795 -8.125 0.5 C-6.48917969 0.36078125 -6.48917969 0.36078125 -4.8203125 0.21875 C-3.21670436 0.09437042 -1.60842449 0 0 0 Z " fill="#3C3C3C" transform="translate(323,33)"/>
<path d="M0 0 C0.33 10.89 0.66 21.78 1 33 C1.99 33.33 2.98 33.66 4 34 C4 34.66 4 35.32 4 36 C-1.94 36 -7.88 36 -14 36 C-14 35.34 -14 34.68 -14 34 C-13.01 34 -12.02 34 -11 34 C-11 23.77 -11 13.54 -11 3 C-11.99 3 -12.98 3 -14 3 C-14 2.34 -14 1.68 -14 1 C-12.04175306 0.83232136 -10.08339945 0.66588795 -8.125 0.5 C-6.48917969 0.36078125 -6.48917969 0.36078125 -4.8203125 0.21875 C-3.21670436 0.09437042 -1.60842449 0 0 0 Z " fill="#3B3B3B" transform="translate(389,33)"/>
<path d="M0 0 C6.57692308 0.57692308 6.57692308 0.57692308 8 2 C8.30972036 6.07549276 8.27848939 10.16419265 8.3125 14.25 C8.34150391 15.39597656 8.37050781 16.54195312 8.40039062 17.72265625 C8.46484943 26.24113555 8.46484943 26.24113555 5.98046875 30.296875 C4 32 4 32 1.1875 31.875 C-2 31 -2 31 -3.67578125 28.4765625 C-5.26793676 24.2965672 -5.44497191 20.92377977 -5.375 16.5 C-5.38660156 15.76652344 -5.39820313 15.03304687 -5.41015625 14.27734375 C-5.37928141 8.52433106 -4.19870951 4.19870951 0 0 Z " fill="#F2F2F2" transform="translate(69,35)"/>
<path d="M0 0 C0.16236745 2.58585205 0.28095486 5.16151954 0.375 7.75 C0.42527344 8.47960938 0.47554687 9.20921875 0.52734375 9.9609375 C0.5859375 12.109375 0.5859375 12.109375 0 16 C-3.32142833 19.01775488 -6.11246459 20.56378142 -10.625 20.5 C-13.6770317 20.34045028 -14.89308799 20.06519025 -17.5625 18.4375 C-19.57214724 15.02983728 -19.54678139 12.89581737 -19 9 C-16.4168637 3.71072091 -11.91099065 2.52538549 -6.65625 0.69921875 C-4 0 -4 0 0 0 Z " fill="#3F3F3F" transform="translate(113,49)"/>
<path d="M0 0 C3.44731462 5.17097194 4.81640791 10.81862586 4 17 C0.45170165 20.4361774 -3.2074155 22.07542382 -7.8125 23.75 C-8.97394531 24.17796875 -10.13539063 24.6059375 -11.33203125 25.046875 C-12.21246094 25.36140625 -13.09289062 25.6759375 -14 26 C-13.54031411 16.07078477 -10.08049925 8.98609259 -3 2 C-2.01 1.34 -1.02 0.68 0 0 Z " fill="#24ABF4" transform="translate(188,16)"/>
<path d="M0 0 C1.88659011 2.82988517 3.19125106 5.52229345 4.5625 8.625 C5.90331238 12.05756043 5.90331238 12.05756043 8 15 C15.79258239 14.61809033 22.69763051 12.39812287 30.0625 9.9375 C31.21427734 9.56044922 32.36605469 9.18339844 33.55273438 8.79492188 C36.37115005 7.87104288 39.18668142 6.93926223 42 6 C42 6.66 42 7.32 42 8 C41.10861328 8.33209473 41.10861328 8.33209473 40.19921875 8.67089844 C37.46442475 9.69272466 34.73222053 10.7213135 32 11.75 C31.06542969 12.09804688 30.13085938 12.44609375 29.16796875 12.8046875 C23.58592224 14.91259318 18.3065599 17.27565005 13 20 C12.01 20.33 11.02 20.66 10 21 C11.90489122 29.2545286 14.64008938 37.2173974 17.34179688 45.24023438 C17.69693359 46.32240234 18.05207031 47.40457031 18.41796875 48.51953125 C18.74563232 49.50026611 19.0732959 50.48100098 19.41088867 51.49145508 C20 54 20 54 19 57 C18.64695801 56.0713916 18.29391602 55.1427832 17.93017578 54.18603516 C16.61982925 50.74368737 15.30244542 47.30406922 13.98291016 43.86523438 C13.41262342 42.37606218 12.84425188 40.8861551 12.27783203 39.39550781 C11.46367883 37.25389992 10.64269098 35.11502311 9.8203125 32.9765625 C9.56814972 32.30879791 9.31598694 31.64103333 9.05618286 30.95303345 C7.96690498 28.13798047 7.15939721 26.15939721 5 24 C-0.05428754 23.49457125 -3.59345782 24.37378413 -8.10546875 26.44140625 C-10.4160825 27.12268 -11.74639052 26.75453444 -14 26 C-13.01257813 25.59007813 -12.02515625 25.18015625 -11.0078125 24.7578125 C-9.71343379 24.21379826 -8.41916884 23.66951331 -7.125 23.125 C-6.47402344 22.85558594 -5.82304687 22.58617188 -5.15234375 22.30859375 C-2.33029055 21.11576714 -0.18742011 20.18742011 2 18 C2.40074004 12.89056455 1.46882396 8.86547938 0 4 C0 2.68 0 1.36 0 0 Z " fill="#EEF5F6" transform="translate(189,15)"/>
<path d="M0 0 C27.39 0 54.78 0 83 0 C83 0.99 83 1.98 83 3 C55.61 3 28.22 3 0 3 C0 2.01 0 1.02 0 0 Z " fill="#717171" transform="translate(367,95)"/>
<path d="M0 0 C27.39 0 54.78 0 83 0 C83 0.99 83 1.98 83 3 C55.61 3 28.22 3 0 3 C0 2.01 0 1.02 0 0 Z " fill="#717171" transform="translate(21,95)"/>
<path d="M0 0 C6.33755083 -0.32780435 10.49466816 0.16877044 15.625 4.3125 C17.38257595 6.46952503 17.48815056 7.93647776 17.6875 10.6875 C17.78611328 11.89986328 17.78611328 11.89986328 17.88671875 13.13671875 C17.92410156 13.75160156 17.96148437 14.36648437 18 15 C11.58311325 15.10349817 5.37305598 14.74507544 -1 14 C-1.2954439 8.97745369 -0.98514628 6.10457614 2 2 C1.34 1.34 0.68 0.68 0 0 Z " fill="#404040" transform="translate(442,33)"/>
<path d="M0 0 C8 0 8 0 11 2 C10.79375 2.94875 10.5875 3.8975 10.375 4.875 C10.25125 5.90625 10.1275 6.9375 10 8 C10.66 8.66 11.32 9.32 12 10 C11.67028521 13.29714793 11.3773161 14.6226839 9 17 C5.98173347 17.27240673 3.03629378 17.08675125 0 17 C0 11.39 0 5.78 0 0 Z " fill="#6D6D6D" transform="translate(221,88)"/>
<path d="M0 0 C7.875 0 7.875 0 11 3 C10.67 4.65 10.34 6.3 10 8 C9.01 8.33 8.02 8.66 7 9 C7.66 9.94875 8.32 10.8975 9 11.875 C11 15 11 15 11 17 C7.48144841 15.59257936 6.61387166 14.33533477 5 11 C4.01 10.67 3.02 10.34 2 10 C2 12.31 2 14.62 2 17 C1.34 17 0.68 17 0 17 C0 11.39 0 5.78 0 0 Z " fill="#494949" transform="translate(303,88)"/>
<path d="M0 0 C5.00237339 -0.35590008 8.90853393 -0.47871319 13.5625 1.5625 C16 4 16 4 17.0625 7.5625 C17 11 17 11 15.875 12.9375 C13.36352369 14.36066991 11.84496772 14.42674516 9 14 C7.125 12.875 7.125 12.875 6 11 C6.3125 7.8125 6.3125 7.8125 7 5 C7.99 4.67 8.98 4.34 10 4 C10 3.34 10 2.68 10 2 C7.69 2.33 5.38 2.66 3 3 C3 2.34 3 1.68 3 1 C2.01 0.67 1.02 0.34 0 0 Z " fill="#464646" transform="translate(409,33)"/>
<path d="M0 0 C3.87547487 -0.45063661 5.55300187 -0.30793205 8.8125 1.9375 C11.77400305 6.08360427 11.77393473 8.95120887 12 14 C6.06 14 0.12 14 -6 14 C-6 13.67 -6 13.34 -6 13 C-2.7 13 0.6 13 4 13 C3.71125 11.5975 3.4225 10.195 3.125 8.75 C2.88136719 7.56664062 2.88136719 7.56664062 2.6328125 6.359375 C2.00849925 4.03168856 1.15161458 2.10968048 0 0 Z " fill="#363636" transform="translate(293,34)"/>
<path d="M0 0 C2.4375 1 2.4375 1 3.75 3.1875 C4.49300636 6.22707147 4.58250687 8.88235232 4.4375 12 C0.8075 12 -2.8225 12 -6.5625 12 C-5.94639589 3.49776332 -5.94639589 3.49776332 -4.1796875 1.20703125 C-2.5625 0 -2.5625 0 0 0 Z " fill="#EEEEEE" transform="translate(292.5625,35)"/>
<path d="M0 0 C3.375 0.875 3.375 0.875 5.375 2.875 C5.708728 6.01204316 5.90349028 8.04054166 4.1875 10.75 C1.75741919 12.25832602 0.18484248 12.23523622 -2.625 11.875 C-3.285 11.215 -3.945 10.555 -4.625 9.875 C-4.25 6.25 -4.25 6.25 -3.625 2.875 C-4.945 3.205 -6.265 3.535 -7.625 3.875 C-5.09785139 0.53916384 -4.30016242 -0.14828146 0 0 Z " fill="#3F3F3F" transform="translate(332.625,33.125)"/>
<path d="M0 0 C0.99386719 0.00902344 1.98773438 0.01804688 3.01171875 0.02734375 C4.15060547 0.04474609 4.15060547 0.04474609 5.3125 0.0625 C5.3125 0.3925 5.3125 0.7225 5.3125 1.0625 C-0.6275 1.5575 -0.6275 1.5575 -6.6875 2.0625 C-5.6975 3.3825 -4.7075 4.7025 -3.6875 6.0625 C-4 9.3125 -4 9.3125 -4.6875 12.0625 C-8.0625 12.6875 -8.0625 12.6875 -11.6875 13.0625 C-13.6875 11.0625 -13.6875 11.0625 -14.125 8.1875 C-13.6875 5.0625 -13.6875 5.0625 -11.375 2.75 C-7.40950291 0.26003671 -4.59094413 -0.05401111 0 0 Z " fill="#434343" transform="translate(109.6875,32.9375)"/>
<path d="M0 0 C0.763125 0.103125 1.52625 0.20625 2.3125 0.3125 C4.31035435 4.4330746 4.49085515 7.76444365 4.3125 12.3125 C1.0125 12.3125 -2.2875 12.3125 -5.6875 12.3125 C-6.36820652 0.74048913 -6.36820652 0.74048913 0 0 Z " fill="#F3F3F3" transform="translate(446.6875,34.6875)"/>
<path d="M0 0 C0.99 0.33 1.98 0.66 3 1 C4.04409043 3.32640994 4.89690418 5.52749642 5.6875 7.9375 C5.91244141 8.58396484 6.13738281 9.23042969 6.36914062 9.89648438 C8 14.67009403 8 14.67009403 8 17 C7.01 16.67 6.02 16.34 5 16 C4.3125 13.9375 4.3125 13.9375 4 12 C2.02 12 0.04 12 -2 12 C-2.33 13.65 -2.66 15.3 -3 17 C-3.66 17 -4.32 17 -5 17 C-4.46246904 10.81839396 -2.45417612 5.673142 0 0 Z " fill="#616161" transform="translate(162,88)"/>
<path d="M0 0 C0.05386629 2.12472576 0.09273071 4.24983652 0.125 6.375 C0.14820312 7.55835938 0.17140625 8.74171875 0.1953125 9.9609375 C0 13 0 13 -2 15 C-4.5625 15.1875 -4.5625 15.1875 -7 15 C-8.55929968 13.44070032 -8.31941003 11.91140432 -8.4375 9.75 C-8.42431986 6.99535143 -8.38832209 5.52214386 -6.73046875 3.29296875 C-2.8301513 0 -2.8301513 0 0 0 Z " fill="#F8F8F8" transform="translate(112,50)"/>
<path d="M0 0 C3.5 0.25 3.5 0.25 5.5 2.25 C5.625 5.375 5.625 5.375 5.5 8.25 C2.84271875 9.98745313 1.60399645 10.25831972 -1.625 10 C-4.5 9.25 -4.5 9.25 -6.5 7.25 C-6.00978594 2.34785936 -5.20374972 0.37169641 0 0 Z " fill="#3B3B3B" transform="translate(383.5,16.75)"/>
<path d="M0 0 C3.96873434 1.32291145 4.29905037 2.91149738 6.1875 6.5625 C6.71730469 7.57441406 7.24710937 8.58632812 7.79296875 9.62890625 C8.19128906 10.41136719 8.58960937 11.19382812 9 12 C9.33 8.04 9.66 4.08 10 0 C10.66 0 11.32 0 12 0 C12 5.61 12 11.22 12 17 C11.01 17 10.02 17 9 17 C7.39453125 14.8125 7.39453125 14.8125 5.8125 12 C5.28269531 11.071875 4.75289063 10.14375 4.20703125 9.1875 C3.60955078 8.1046875 3.60955078 8.1046875 3 7 C2.67 10.3 2.34 13.6 2 17 C1.34 17 0.68 17 0 17 C0 11.39 0 5.78 0 0 Z " fill="#505050" transform="translate(117,88)"/>
<path d="M0 0 C0.99 0 1.98 0 3 0 C4.98 3.63 6.96 7.26 9 11 C9.33 7.37 9.66 3.74 10 0 C10.66 0 11.32 0 12 0 C12 5.61 12 11.22 12 17 C8.03126566 15.67708855 7.70094963 14.08850262 5.8125 10.4375 C5.28269531 9.42558594 4.75289062 8.41367188 4.20703125 7.37109375 C3.80871094 6.58863281 3.41039062 5.80617188 3 5 C2.67 8.96 2.34 12.92 2 17 C1.34 17 0.68 17 0 17 C0 11.39 0 5.78 0 0 Z " fill="#555555" transform="translate(172,88)"/>
<path d="M0 0 C3.3 0 6.6 0 10 0 C10 0.66 10 1.32 10 2 C7.69 2 5.38 2 3 2 C3 3.65 3 5.3 3 7 C4.98 7 6.96 7 9 7 C9 7.66 9 8.32 9 9 C7.02 9 5.04 9 3 9 C3 10.98 3 12.96 3 15 C5.31 15 7.62 15 10 15 C10 15.66 10 16.32 10 17 C6.7 17 3.4 17 0 17 C0 11.39 0 5.78 0 0 Z " fill="#5E5E5E" transform="translate(257,88)"/>
<path d="M0 0 C3.3 0 6.6 0 10 0 C10 0.66 10 1.32 10 2 C7.69 2 5.38 2 3 2 C3 3.65 3 5.3 3 7 C4.98 7 6.96 7 9 7 C9 7.66 9 8.32 9 9 C6.69 9 4.38 9 2 9 C2 10.98 2 12.96 2 15 C4.64 15 7.28 15 10 15 C10 15.66 10 16.32 10 17 C6.7 17 3.4 17 0 17 C0 11.39 0 5.78 0 0 Z " fill="#5A5A5A" transform="translate(289,88)"/>
<path d="M0 0 C0.66 0 1.32 0 2 0 C2.33 2.31 2.66 4.62 3 7 C4.98 4.69 6.96 2.38 9 0 C9.66 0.33 10.32 0.66 11 1 C9.02 3.97 9.02 3.97 7 7 C7.3609375 7.55429688 7.721875 8.10859375 8.09375 8.6796875 C8.5578125 9.40414062 9.021875 10.12859375 9.5 10.875 C9.9640625 11.59429687 10.428125 12.31359375 10.90625 13.0546875 C12 15 12 15 12 17 C10.125 16.375 10.125 16.375 8 15 C6.75 11.875 6.75 11.875 6 9 C2.68539295 10.70892499 2.68539295 10.70892499 2.3125 14.125 C2.209375 15.07375 2.10625 16.0225 2 17 C1.34 17 0.68 17 0 17 C0 11.39 0 5.78 0 0 Z " fill="#474747" transform="translate(243,88)"/>
<path d="M0 0 C3.3 0 6.6 0 10 0 C10 0.66 10 1.32 10 2 C7.36 2 4.72 2 2 2 C2 3.65 2 5.3 2 7 C4.31 7 6.62 7 9 7 C9 7.66 9 8.32 9 9 C6.69 9 4.38 9 2 9 C2 10.98 2 12.96 2 15 C4.64 15 7.28 15 10 15 C10 15.66 10 16.32 10 17 C6.7 17 3.4 17 0 17 C0 11.39 0 5.78 0 0 Z " fill="#4B4B4B" transform="translate(351,88)"/>
<path d="M0 0 C3.3 0 6.6 0 10 0 C10 0.66 10 1.32 10 2 C7.36 2 4.72 2 2 2 C2 3.65 2 5.3 2 7 C4.31 7 6.62 7 9 7 C9 7.66 9 8.32 9 9 C6.69 9 4.38 9 2 9 C2 10.98 2 12.96 2 15 C4.64 15 7.28 15 10 15 C10 15.66 10 16.32 10 17 C6.7 17 3.4 17 0 17 C0 11.39 0 5.78 0 0 Z " fill="#4B4B4B" transform="translate(203,88)"/>
<path d="M0 0 C0.94875 0.04125 1.8975 0.0825 2.875 0.125 C3.205 1.115 3.535 2.105 3.875 3.125 C1.895 3.125 -0.085 3.125 -2.125 3.125 C-2.455 4.115 -2.785 5.105 -3.125 6.125 C-2.17625 6.41375 -1.2275 6.7025 -0.25 7 C2.875 8.125 2.875 8.125 4.875 10.125 C5.125 12.625 5.125 12.625 4.875 15.125 C2.875 17.125 2.875 17.125 -0.625 17.4375 C-1.78 17.334375 -2.935 17.23125 -4.125 17.125 C-4.785 16.135 -5.445 15.145 -6.125 14.125 C-3.485 14.125 -0.845 14.125 1.875 14.125 C1.875 13.135 1.875 12.145 1.875 11.125 C-1.59 9.145 -1.59 9.145 -5.125 7.125 C-5.25 4.75 -5.25 4.75 -5.125 2.125 C-3.125 0.125 -3.125 0.125 0 0 Z " fill="#4A4A4A" transform="translate(138.125,87.875)"/>
<path d="M0 0 C3.96 0 7.92 0 12 0 C11.0925 1.7325 10.185 3.465 9.25 5.25 C6.19384998 11.33333179 3.96196109 17.49090558 2 24 C1.34 24 0.68 24 0 24 C0.20496094 23.39414062 0.40992188 22.78828125 0.62109375 22.1640625 C3.60430279 13.2550204 3.60430279 13.2550204 4 4 C2.68 2.68 1.36 1.36 0 0 Z " fill="#515151" transform="translate(361,34)"/>
<path d="M0 0 C0.94875 0.04125 1.8975 0.0825 2.875 0.125 C3.205 1.115 3.535 2.105 3.875 3.125 C1.895 3.125 -0.085 3.125 -2.125 3.125 C-2.125 4.115 -2.125 5.105 -2.125 6.125 C-1.155625 6.599375 -0.18625 7.07375 0.8125 7.5625 C3.875 9.125 3.875 9.125 4.875 10.125 C5.125 12.5625 5.125 12.5625 4.875 15.125 C1.42470958 17.42519361 -0.07054358 17.55632515 -4.125 17.125 C-4.785 16.135 -5.445 15.145 -6.125 14.125 C-3.485 14.125 -0.845 14.125 1.875 14.125 C1.875 13.135 1.875 12.145 1.875 11.125 C-1.59 9.145 -1.59 9.145 -5.125 7.125 C-5.25 4.75 -5.25 4.75 -5.125 2.125 C-3.125 0.125 -3.125 0.125 0 0 Z " fill="#434343" transform="translate(281.125,87.875)"/>
<path d="M0 0 C4.29 0 8.58 0 13 0 C13 0.66 13 1.32 13 2 C11.35 2 9.7 2 8 2 C8 6.95 8 11.9 8 17 C7.01 17 6.02 17 5 17 C5 12.05 5 7.1 5 2 C3.35 2 1.7 2 0 2 C0 1.34 0 0.68 0 0 Z " fill="#676767" transform="translate(144,88)"/>
<path d="M0 0 C0.99 0.33 1.98 0.66 3 1 C3.94921875 3.50390625 3.94921875 3.50390625 4.6875 6.5625 C4.93886719 7.57441406 5.19023437 8.58632812 5.44921875 9.62890625 C5.63097656 10.41136719 5.81273437 11.19382812 6 12 C6.39832031 10.82630859 6.39832031 10.82630859 6.8046875 9.62890625 C7.15789062 8.61699219 7.51109375 7.60507813 7.875 6.5625 C8.22304688 5.55316406 8.57109375 4.54382813 8.9296875 3.50390625 C10 1 10 1 12 0 C11.35729017 5.9129304 9.80996216 11.34244531 8 17 C7.01 17 6.02 17 5 17 C4.80664062 16.40832031 4.61328125 15.81664063 4.4140625 15.20703125 C3.29262413 11.80385442 2.18100562 8.43822413 0.8125 5.125 C0 3 0 3 0 0 Z " fill="#5E5E5E" transform="translate(315,88)"/>
<path d="M0 0 C0 0.66 0 1.32 0 2 C-2.31 2 -4.62 2 -7 2 C-8.49297212 4.98594424 -8.11755228 7.70853624 -8 11 C-7.67 11.66 -7.34 12.32 -7 13 C-4.36 13 -1.72 13 1 13 C0.01 14.485 0.01 14.485 -1 16 C-4.499009 16.53245789 -6.33021766 16.40539457 -9.375 14.5625 C-11.77817914 10.77287136 -11.77561987 7.36586028 -11 3 C-8.07873274 -1.907729 -5.19187334 -1.19812462 0 0 Z " fill="#484848" transform="translate(347,89)"/>
<path d="M0 0 C0 0.66 0 1.32 0 2 C-2.31 2 -4.62 2 -7 2 C-8.49297212 4.98594424 -8.11755228 7.70853624 -8 11 C-7.67 11.66 -7.34 12.32 -7 13 C-4.36 13 -1.72 13 1 13 C0.01 14.485 0.01 14.485 -1 16 C-4.499009 16.53245789 -6.33021766 16.40539457 -9.375 14.5625 C-11.77817914 10.77287136 -11.77561987 7.36586028 -11 3 C-8.07873274 -1.907729 -5.19187334 -1.19812462 0 0 Z " fill="#484848" transform="translate(199,89)"/>
<path d="M0 0 C0.99 0.33 1.98 0.66 3 1 C4.04409043 3.32640994 4.89690418 5.52749642 5.6875 7.9375 C5.91244141 8.58396484 6.13738281 9.23042969 6.36914062 9.89648438 C8 14.67009403 8 14.67009403 8 17 C7.01 16.67 6.02 16.34 5 16 C3.83203125 13.27734375 3.83203125 13.27734375 2.8125 9.9375 C2.29623047 8.28041016 2.29623047 8.28041016 1.76953125 6.58984375 C1.51558594 5.73519531 1.26164063 4.88054687 1 4 C0.34 5.65 -0.32 7.3 -1 9 C-1.33 9 -1.66 9 -2 9 C-1.125 1.125 -1.125 1.125 0 0 Z " fill="#565656" transform="translate(162,88)"/>
<path d="M0 0 C0.99 0.33 1.98 0.66 3 1 C4.09082031 3.36083984 4.09082031 3.36083984 5.078125 6.4609375 C5.43390625 7.57210937 5.7896875 8.68328125 6.15625 9.828125 C6.5171875 10.99859375 6.878125 12.1690625 7.25 13.375 C7.62640625 14.53773437 8.0028125 15.70046875 8.390625 16.8984375 C11.13162202 25.60513393 11.13162202 25.60513393 10 29 C8.32517725 24.73232002 6.66154501 20.46036507 5 16.1875 C4.52304688 14.97255859 4.04609375 13.75761719 3.5546875 12.50585938 C3.10351562 11.34248047 2.65234375 10.17910156 2.1875 8.98046875 C1.76855469 7.90692139 1.34960938 6.83337402 0.91796875 5.72729492 C0 3 0 3 0 0 Z " fill="#F0EFCF" transform="translate(198,43)"/>
<path d="M0 0 C0.66 0 1.32 0 2 0 C2 5.61 2 11.22 2 17 C-1 16 -1 16 -2.75 13.625 C-4 11 -4 11 -3 8 C-2.01 9.485 -2.01 9.485 -1 11 C-0.67 7.37 -0.34 3.74 0 0 Z " fill="#464646" transform="translate(182,88)"/>
<path d="M0 0 C2.97 0 5.94 0 9 0 C9.33 1.65 9.66 3.3 10 5 C9.01 5.495 9.01 5.495 8 6 C7.67 4.68 7.34 3.36 7 2 C4.03 1.505 4.03 1.505 1 1 C1 2.98 1 4.96 1 7 C2.65 7 4.3 7 6 7 C4.68 7.33 3.36 7.66 2 8 C2 10.31 2 12.62 2 15 C1.34 15 0.68 15 0 15 C0 10.05 0 5.1 0 0 Z " fill="#484848" transform="translate(222,89)"/>
<path d="M0 0 C1.875 0.05859375 1.875 0.05859375 4 0.4375 C7.10060539 1.05696544 7.10060539 1.05696544 10 0 C10 3.96 10 7.92 10 12 C9.34 12 8.68 12 8 12 C7.5978125 10.329375 7.5978125 10.329375 7.1875 8.625 C6.34190981 4.78159049 6.34190981 4.78159049 3 3 C1.34450469 2.61500109 -0.3222433 2.27206865 -2 2 C-1.34 1.34 -0.68 0.68 0 0 Z " fill="#4C4C4C" transform="translate(259,33)"/>
<path d="M0 0 C0.33 0.66 0.66 1.32 1 2 C-2.41522737 3.31626691 -5.83242064 4.62735326 -9.25 5.9375 C-10.21808594 6.31068359 -11.18617188 6.68386719 -12.18359375 7.06835938 C-13.11816406 7.42607422 -14.05273438 7.78378906 -15.015625 8.15234375 C-16.30388184 8.6472229 -16.30388184 8.6472229 -17.61816406 9.15209961 C-19.73429522 9.9054128 -21.81180249 10.50167567 -24 11 C-24 10.01 -24 9.02 -24 8 C-16.08 5.36 -8.16 2.72 0 0 Z " fill="#C7D7D2" transform="translate(230,21)"/>
<path d="M0 0 C0.66 0 1.32 0 2 0 C2 5.61 2 11.22 2 17 C1.01 17 0.02 17 -1 17 C-1.33 15.68 -1.66 14.36 -2 13 C-1.67 13 -1.34 13 -1 13 C-0.67 8.71 -0.34 4.42 0 0 Z " fill="#606060" transform="translate(127,88)"/>
<path d="M0 0 C2.375 -0.125 2.375 -0.125 5 0 C5.66 0.66 6.32 1.32 7 2 C6.625 4.125 6.625 4.125 6 6 C4.02 6 2.04 6 0 6 C0 4.02 0 2.04 0 0 Z " fill="#F6F6F6" transform="translate(224,97)"/>
<path d="M0 0 C1.65 0 3.3 0 5 0 C5.38218767 1.65614657 5.71395102 3.32457024 6 5 C5 6 5 6 2.4375 6.0625 C1.2309375 6.0315625 1.2309375 6.0315625 0 6 C0 4.02 0 2.04 0 0 Z " fill="#F9F9F9" transform="translate(305,90)"/>
<path d="M0 0 C6.29213483 -0.36300778 6.29213483 -0.36300778 9.4375 1.25 C11 3 11 3 11 7 C10.01 7 9.02 7 8 7 C7.67 5.68 7.34 4.36 7 3 C4.69 3 2.38 3 0 3 C0 2.01 0 1.02 0 0 Z " fill="#555555" transform="translate(303,88)"/>
<path d="M0 0 C1.65 0 3.3 0 5 0 C5.5625 1.9375 5.5625 1.9375 6 4 C5 5 5 5 2.4375 5.0625 C1.2309375 5.0315625 1.2309375 5.0315625 0 5 C0 3.35 0 1.7 0 0 Z " fill="#F6F6F6" transform="translate(224,90)"/>
<path d="M0 0 C0.66 0 1.32 0 2 0 C2.33 1.98 2.66 3.96 3 6 C2.34 6 1.68 6 1 6 C1.33 8.31 1.66 10.62 2 13 C1.34 13 0.68 13 0 13 C0 8.71 0 4.42 0 0 Z " fill="#5C5C5C" transform="translate(245,56)"/>
<path d="M0 0 C1.12377697 3.30435084 0.89554742 5.0506862 -0.4375 8.25 C-0.72496094 8.95640625 -1.01242187 9.6628125 -1.30859375 10.390625 C-1.53675781 10.92171875 -1.76492188 11.4528125 -2 12 C-2.33 12 -2.66 12 -3 12 C-2.88541307 10.56163249 -2.75790884 9.12429034 -2.625 7.6875 C-2.55539062 6.88699219 -2.48578125 6.08648437 -2.4140625 5.26171875 C-2 3 -2 3 0 0 Z " fill="#4E4E4E" transform="translate(326,88)"/>
<path d="M0 0 C0.99 0.33 1.98 0.66 3 1 C3.33 4.3 3.66 7.6 4 11 C1.55160412 7.32740617 0 4.45351799 0 0 Z " fill="#515151" transform="translate(315,88)"/>
<path d="M0 0 C0.94875 0.04125 1.8975 0.0825 2.875 0.125 C3.205 1.115 3.535 2.105 3.875 3.125 C2.92625 3.08375 1.9775 3.0425 1 3 C-2.22744856 2.77526182 -2.22744856 2.77526182 -4.125 5.125 C-4.455 4.135 -4.785 3.145 -5.125 2.125 C-3.125 0.125 -3.125 0.125 0 0 Z " fill="#545454" transform="translate(281.125,87.875)"/>
<path d="M0 0 C2 3 2 3 2 7 C0.68 7 -0.64 7 -2 7 C-1.125 1.125 -1.125 1.125 0 0 Z " fill="#E8E8E8" transform="translate(163,91)"/>
<path d="M0 0 C2.97 0 5.94 0 9 0 C9.33 1.65 9.66 3.3 10 5 C9.01 5.495 9.01 5.495 8 6 C7.67 4.68 7.34 3.36 7 2 C4.69 1.67 2.38 1.34 0 1 C0 0.67 0 0.34 0 0 Z " fill="#3E3E3E" transform="translate(222,89)"/>
</svg>
