<?xml version="1.0" encoding="UTF-8"?>
<svg version="1.1" xmlns="http://www.w3.org/2000/svg" width="761" height="113">
<path d="M0 0 C251.13 0 502.26 0 761 0 C761 37.29 761 74.58 761 113 C509.87 113 258.74 113 0 113 C0 75.71 0 38.42 0 0 Z " fill="#FCFCFC" transform="translate(0,0)"/>
<path d="M0 0 C-1.12451727 2.9719385 -2.22293791 5.33440687 -4 8 C-4.31680837 10.07475663 -4.31680837 10.07475663 -4.30859375 12.3515625 C-4.33373047 13.20363281 -4.35886719 14.05570313 -4.38476562 14.93359375 C-4.41946139 16.70436292 -4.4508042 18.47520151 -4.47851562 20.24609375 C-4.64302104 25.59853812 -5.46949983 29.94519705 -7.31225586 34.96777344 C-9.75690553 42.19150928 -8.61674276 49.58950282 -5.5 56.375 C-2.10454637 62.46423394 2.23817792 67.74605931 9 70 C17.38171199 70.90843031 17.38171199 70.90843031 25.37109375 68.87109375 C30.11234708 64.9659324 32.64280279 60.54503014 33.5 54.4375 C32.85084427 49.97455437 31.37045668 48.92805574 28 46 C24.8010204 44.06295072 24.8010204 44.06295072 21.3125 42.4375 C20.70325684 42.14157959 20.09401367 41.84565918 19.46630859 41.54077148 C14.40651518 39.11443392 9.25981 36.95121984 4 35 C4.13354696 30.39553295 4.60237579 27.96085287 7.94140625 24.69140625 C9.1333208 23.63119497 10.34093532 22.58840837 11.5625 21.5625 C12.48579102 20.75135742 12.48579102 20.75135742 13.42773438 19.92382812 C14.938463 18.60047669 16.46748297 17.29805684 18 16 C20.47640067 17.74208963 21.90626403 18.83698093 23.4375 21.5 C25.8756486 25.40103776 28.98599546 26.60235116 33.1875 28.25 C42.13982701 31.99156337 49.41748346 37.92401922 53.8125 46.5625 C57.31085683 57.19912251 54.84233779 67.26367282 50 77 C46.0180898 84.61431103 39.9237816 88.01826448 32 91 C18.39009887 93.98841744 3.82790957 92.52350702 -8 85 C-15.44939018 79.44925499 -20.59154025 73.13869492 -25 65 C-25.43441406 64.2678125 -25.86882812 63.535625 -26.31640625 62.78125 C-31.38608239 52.74788398 -30.35511197 38.49647666 -27.4375 27.9375 C-23.0465668 16.03014295 -15.90711849 7.17553879 -4.85546875 0.75390625 C-3 0 -3 0 0 0 Z " fill="#EC9147" transform="translate(271,17)"/>
<path d="M0 0 C15.23291457 -0.61824681 27.90639047 4.57059798 39.08984375 14.859375 C46.89909765 23.0747101 51.19153629 31.94408601 51.96484375 43.234375 C52.04605469 44.38292969 52.12726563 45.53148437 52.2109375 46.71484375 C52.71355504 60.68151901 47.53353523 70.59689666 38.96484375 81.234375 C36.43722834 83.77870191 33.83407357 86.08440715 30.96484375 88.234375 C30.96484375 85.234375 30.96484375 85.234375 32.71484375 82.734375 C38.46110449 74.38177457 40.16621897 65.21693607 38.96484375 55.234375 C37.2547894 47.88822436 34.10603916 43.49011568 27.96484375 39.234375 C27.01609375 38.533125 26.06734375 37.831875 25.08984375 37.109375 C22.5416284 35.58044579 20.18720283 34.43953742 17.46484375 33.296875 C11.3162014 30.64695506 7.09706863 27.32481226 3.96484375 21.234375 C3.52914063 21.60949219 3.0934375 21.98460938 2.64453125 22.37109375 C2.04898437 22.88285156 1.4534375 23.39460938 0.83984375 23.921875 C0.205625 24.47359375 -0.42859375 25.0253125 -1.08203125 25.59375 C-3.03515625 27.234375 -3.03515625 27.234375 -4.80078125 28.5 C-8.0356646 30.85549759 -8.97068404 31.87901934 -9.69921875 35.89453125 C-9.86550781 37.54775391 -9.86550781 37.54775391 -10.03515625 39.234375 C-8.99617188 39.59789062 -7.9571875 39.96140625 -6.88671875 40.3359375 C14.38750255 47.93879734 14.38750255 47.93879734 18.96484375 55.234375 C19.80787495 60.71407783 18.51454134 63.98804012 15.421875 68.3671875 C10.31192023 74.91560139 10.31192023 74.91560139 4.71484375 75.67578125 C-2.38430176 75.90890997 -7.47378711 75.77426818 -13.03515625 71.234375 C-20.1876963 64.46391508 -24.19453586 57.68876716 -24.47265625 47.734375 C-24.46765807 43.77581605 -23.88969302 40.64294762 -22.53515625 36.96484375 C-20.48018771 31.16250771 -20.60025386 25.52507704 -20.59570312 19.43164062 C-20.47089627 13.80672471 -19.62517395 10.79279824 -16.03515625 6.234375 C-15.70515625 5.244375 -15.37515625 4.254375 -15.03515625 3.234375 C-10.25999648 0.70634924 -5.2787034 0.40762188 0 0 Z " fill="#ECBD4D" transform="translate(286.03515625,12.765625)"/>
<path d="M0 0 C0.33 24.75 0.66 49.5 1 75 C2.65 75.33 4.3 75.66 6 76 C6 76.99 6 77.98 6 79 C-0.93 79 -7.86 79 -15 79 C-15.66 77.68 -16.32 76.36 -17 75 C-17.763125 75.639375 -18.52625 76.27875 -19.3125 76.9375 C-23.46821303 80.12676814 -27.19439793 80.54257989 -32.30078125 80.453125 C-37.43545589 79.59115357 -40.64742659 76.86073907 -44 73 C-48.44056926 66.34952127 -49.44594986 59.5668974 -49.5625 51.75 C-49.57740479 51.00580811 -49.59230957 50.26161621 -49.60766602 49.49487305 C-49.46806904 42.05823634 -46.47481274 36.20342311 -41.625 30.625 C-41.08101563 29.97789063 -40.53703125 29.33078125 -39.9765625 28.6640625 C-35.6418546 25.01468391 -30.79453892 24.72453176 -25.3125 24.75 C-24.19488281 24.74484375 -23.07726562 24.7396875 -21.92578125 24.734375 C-19 25 -19 25 -16 27 C-16.02278381 23.72761969 -16.10005764 20.45874097 -16.1875 17.1875 C-16.19330078 16.25873047 -16.19910156 15.32996094 -16.20507812 14.37304688 C-16.28808671 11.81822711 -16.40345555 9.48684829 -17 7 C-19.41200987 4.99203627 -19.41200987 4.99203627 -22 4 C-22 3.01 -22 2.02 -22 1 C-15 0 -15 0 0 0 Z " fill="#3E3E3E" transform="translate(113,21)"/>
<path d="M0 0 C0.66 1.65 1.32 3.3 2 5 C2.44988281 4.6390625 2.89976562 4.278125 3.36328125 3.90625 C9.1426553 -0.26323829 13.97587101 -0.97736351 21 0 C24.56837244 1.21069779 26.30757974 2.12842711 28.63525391 5.05834961 C30.49945463 9.07655256 30.38585172 12.50400347 30.3359375 16.87890625 C30.34844374 18.62174856 30.36148057 20.36458713 30.375 22.10742188 C30.37893761 24.84184907 30.37492851 27.57591002 30.36035156 30.31030273 C30.35179062 32.95872597 30.37343778 35.60561794 30.3984375 38.25390625 C30.38509369 39.07065323 30.37174988 39.88740021 30.35800171 40.72889709 C30.38671804 42.93269365 30.45670026 44.86333707 31 47 C33.39807715 49.44269274 33.39807715 49.44269274 36 51 C36 51.66 36 52.32 36 53 C27.42 53 18.84 53 10 53 C10.33 52.01 10.66 51.02 11 50 C11.66 49.67 12.32 49.34 13 49 C13.33 34.81 13.66 20.62 14 6 C5.36440544 6.01089951 5.36440544 6.01089951 2 10 C1.73827246 13.01296236 1.65139887 15.81480568 1.70703125 18.82421875 C1.71339851 20.11632011 1.71339851 20.11632011 1.71989441 21.43452454 C1.73668752 24.18583431 1.77434044 26.93641162 1.8125 29.6875 C1.82754604 31.5527238 1.84123459 33.41795907 1.85351562 35.28320312 C1.88659307 39.85575098 1.9383794 44.4277513 2 49 C2.66 49.33 3.32 49.66 4 50 C4 50.99 4 51.98 4 53 C-4.25 53 -12.5 53 -21 53 C-20.67 52.01 -20.34 51.02 -20 50 C-19.01 49.505 -19.01 49.505 -18 49 C-17.67 34.48 -17.34 19.96 -17 5 C-18.32 4.67 -19.64 4.34 -21 4 C-21 3.01 -21 2.02 -21 1 C-13.96094956 0.06145994 -7.09727428 -0.10808032 0 0 Z " fill="#414141" transform="translate(196,46)"/>
<path d="M0 0 C6.93 0 13.86 0 21 0 C21.66 15.84 22.32 31.68 23 48 C31.21924511 46.86184034 31.21924511 46.86184034 34.03320312 44.38500977 C35.44386442 40.90502234 35.46776642 37.53846996 35.46875 33.83984375 C35.47636353 33.05356094 35.48397705 32.26727814 35.49182129 31.45716858 C35.50260489 29.79887055 35.50548245 28.1405047 35.50097656 26.48217773 C35.50000175 23.94205272 35.54168773 21.4049252 35.5859375 18.86523438 C35.5911429 17.25261047 35.59383272 15.63997606 35.59375 14.02734375 C35.61014526 13.26791977 35.62654053 12.50849579 35.64343262 11.72605896 C35.66777495 9.32838344 35.66777495 9.32838344 35 6 C32.56068377 4.14630416 32.56068377 4.14630416 30 3 C30 2.01 30 1.02 30 0 C36.93 0 43.86 0 51 0 C51.01417969 3.19042969 51.02835938 6.38085938 51.04296875 9.66796875 C51.07359442 12.76255843 51.11268194 15.85693375 51.15258789 18.95141602 C51.17576522 21.09977624 51.19016297 23.24825004 51.19555664 25.39672852 C51.20484791 28.48786173 51.24584351 31.57720912 51.29296875 34.66796875 C51.2890361 35.62648239 51.28510345 36.58499603 51.28105164 37.57255554 C51.38332234 43.27973336 51.38332234 43.27973336 54.54418945 47.95825195 C55.35460693 48.63202881 56.16502441 49.30580566 57 50 C57 50.99 57 51.98 57 53 C50.07 53 43.14 53 36 53 C35.34 51.68 34.68 50.36 34 49 C33.608125 49.45375 33.21625 49.9075 32.8125 50.375 C28.48130826 54.25813742 23.94940131 54.3201195 18.37109375 54.1875 C14.42780107 53.87567455 12.01857194 53.09402171 9.3125 50.1875 C6.24362269 45.07270448 5.70817173 40.63535179 5.69140625 34.7421875 C5.66626487 33.13150651 5.6408666 31.52082951 5.61523438 29.91015625 C5.58641374 27.38428629 5.56237789 24.85848516 5.54370117 22.33251953 C5.52209356 19.88539815 5.4826829 17.43904442 5.44140625 14.9921875 C5.44129044 14.23590057 5.44117462 13.47961365 5.4410553 12.70040894 C5.39357472 8.61955898 5.39357472 8.61955898 3.59741211 5.06298828 C1.97577119 3.93655465 1.97577119 3.93655465 0 3 C0 2.01 0 1.02 0 0 Z " fill="#3A3A3A" transform="translate(1,47)"/>
<path d="M0 0 C0.68126953 -0.01160156 1.36253906 -0.02320313 2.06445312 -0.03515625 C8.33286077 0.0009729 12.07707006 1.60384872 16.58300781 5.89355469 C19.85433738 9.94877675 19.57544351 13.90821932 19.42578125 18.9296875 C19.41870651 19.83123566 19.41163177 20.73278381 19.40434265 21.66165161 C19.37647892 24.5252986 19.313757 27.3869497 19.25 30.25 C19.22490669 32.19788832 19.20209533 34.14580745 19.18164062 36.09375 C19.12667868 40.8549291 19.04046295 45.61462683 18.9375 50.375 C21.9075 49.88 21.9075 49.88 24.9375 49.375 C24.75 51.25 24.75 51.25 23.9375 53.375 C19.62397296 56.15792067 13.88837912 56.23493347 8.9375 55.375 C6.3125 52.875 6.3125 52.875 4.9375 50.375 C2.19564847 51.423355 -0.27840071 52.50257769 -2.8125 54 C-7.03751005 55.78750425 -10.54735424 56.36880158 -15.0625 55.375 C-18.43527904 53.32118483 -21.28240552 50.93518896 -23.0625 47.375 C-23.77650953 42.43116186 -23.98348596 37.78877898 -20.9375 33.625 C-14.85742371 27.47219552 -5.01162651 25.02470884 2.9375 22.375 C2.9375 16.435 2.9375 10.495 2.9375 4.375 C-0.6925 4.705 -4.3225 5.035 -8.0625 5.375 C-7.0725 6.695 -6.0825 8.015 -5.0625 9.375 C-4.44071064 12.29348878 -4.72343286 14.32339574 -5.0625 17.375 C-6.83279896 19.73539861 -8.10606316 20.20252778 -10.96875 20.71875 C-14.84674695 21.00815276 -16.52559152 20.80714585 -19.625 18.3125 C-21.53468753 14.41009504 -21.318163 12.51130166 -20.0625 8.375 C-14.81885449 1.58910581 -8.23727099 -0.141076 0 0 Z " fill="#3F3F3F" transform="translate(146.0625,45.625)"/>
<path d="M0 0 C3.78557789 3.14122421 5.64920466 4.99959388 7.9375 9.4375 C7.9375 13.3975 7.9375 17.3575 7.9375 21.4375 C-0.9725 21.4375 -9.8825 21.4375 -19.0625 21.4375 C-18.21914069 32.08568225 -18.21914069 32.08568225 -14.0625 41.4375 C-10.10481242 43.41634379 -5.36432921 43.00784125 -1.0625 42.4375 C1.43523046 41.0340601 2.90975272 39.5172408 4.9375 37.4375 C5.5975 37.4375 6.2575 37.4375 6.9375 37.4375 C6.9375 41.28328035 6.80878447 43.41964431 4.265625 46.390625 C-2.42762443 52.37932186 -7.78161087 54.01892872 -16.76171875 53.88671875 C-23.10589685 53.0233099 -26.98811751 49.45729348 -31.4375 45.125 C-36.63562543 36.52810024 -37.1649735 27.4893575 -35.62890625 17.6640625 C-33.72067334 9.96001657 -29.27858902 4.09774991 -22.5 -0.0625 C-15.9335498 -2.93532196 -6.4708781 -3.27801061 0 0 Z " fill="#404040" transform="translate(656.0625,47.5625)"/>
<path d="M0 0 C5.12190749 3.80859788 8.02508681 8.62784224 9.4375 14.8125 C9.4375 17.1225 9.4375 19.4325 9.4375 21.8125 C0.1975 21.8125 -9.0425 21.8125 -18.5625 21.8125 C-17.24017145 33.66422338 -17.24017145 33.66422338 -14.5625 39.8125 C-14.5625 40.8025 -14.5625 41.7925 -14.5625 42.8125 C-12.16475255 42.94822155 -9.77474755 43.04686868 -7.375 43.125 C-6.36469727 43.1878418 -6.36469727 43.1878418 -5.33398438 43.25195312 C-1.28325376 43.35075143 0.180208 43.04395515 3.23828125 40.29296875 C3.96402344 39.47441406 4.68976563 38.65585938 5.4375 37.8125 C6.4275 37.8125 7.4175 37.8125 8.4375 37.8125 C7.26958199 42.77615152 6.13898628 46.11101372 2.4375 49.8125 C-4.31555326 53.75178107 -10.81425961 54.75688387 -18.5625 53.8125 C-25.49080691 51.10649461 -30.19575839 45.91510322 -33.16796875 39.16796875 C-34.76720348 34.72903791 -35.10221973 30.62945554 -35.0625 25.9375 C-35.05391968 24.75559082 -35.05391968 24.75559082 -35.04516602 23.54980469 C-34.81538853 16.0390983 -32.97264761 10.5874541 -27.8828125 4.953125 C-20.34934572 -2.07811066 -9.63482407 -3.21160802 0 0 Z " fill="#3D3D3D" transform="translate(426.5625,47.1875)"/>
<path d="M0 0 C0.33 24.75 0.66 49.5 1 75 C2.65 75.33 4.3 75.66 6 76 C6 76.99 6 77.98 6 79 C-0.93 79 -7.86 79 -15 79 C-15.495 76.03 -15.495 76.03 -16 73 C-16.66 72.67 -17.32 72.34 -18 72 C-17.67547852 71.51208984 -17.35095703 71.02417969 -17.01660156 70.52148438 C-15.57256359 66.93982632 -15.71454068 63.45871558 -15.734375 59.65625 C-15.73246155 58.85014282 -15.7305481 58.04403564 -15.72857666 57.21350098 C-15.72721806 55.51228523 -15.7308918 53.811059 -15.73925781 52.10986328 C-15.74996212 49.50920271 -15.73935172 46.90923289 -15.7265625 44.30859375 C-15.72788415 42.65364431 -15.73044667 40.9986953 -15.734375 39.34375 C-15.73032654 38.56761353 -15.72627808 37.79147705 -15.72210693 36.99182129 C-15.75508508 33.18595386 -15.85429013 30.22602259 -18 27 C-17.34 27 -16.68 27 -16 27 C-16.02278381 23.72761969 -16.10005764 20.45874097 -16.1875 17.1875 C-16.19330078 16.25873047 -16.19910156 15.32996094 -16.20507812 14.37304688 C-16.28808671 11.81822711 -16.40345555 9.48684829 -17 7 C-19.41200987 4.99203627 -19.41200987 4.99203627 -22 4 C-22 3.01 -22 2.02 -22 1 C-15 0 -15 0 0 0 Z " fill="#3B3B3B" transform="translate(113,21)"/>
<path d="M0 0 C1.66869141 -0.02126953 1.66869141 -0.02126953 3.37109375 -0.04296875 C8.97280664 0.36156131 12.58598569 2.40549527 16.390625 6.40625 C18.59057992 9.75018148 18.12919712 12.28358651 17.5625 16.1875 C16.33984375 18.40234375 16.33984375 18.40234375 14.5625 20.1875 C12.1875 20.68359375 12.1875 20.68359375 9.5625 20.625 C8.69625 20.62371094 7.83 20.62242188 6.9375 20.62109375 C4.11646392 20.10606907 3.20209427 19.51995507 1.5625 17.1875 C0.82918975 13.6215992 0.86002443 10.25793896 2.875 7.1875 C4.5625 6.1875 4.5625 6.1875 7.5625 6.1875 C7.5625 5.5275 7.5625 4.8675 7.5625 4.1875 C1.5620641 4.38809897 1.5620641 4.38809897 -3.8125 6.75 C-9.30481011 14.98846516 -9.30078931 23.62491076 -8.4375 33.1875 C-6.92154149 39.72655921 -6.92154149 39.72655921 -2.5078125 44.421875 C0.68909307 45.60412687 3.18201355 45.53720549 6.5625 45.1875 C9.66289543 43.43255919 12.05075667 41.69924333 14.5625 39.1875 C15.5525 39.5175 16.5425 39.8475 17.5625 40.1875 C13.35737179 50.91057692 13.35737179 50.91057692 8.43359375 53.16015625 C1.43599384 55.51459128 -5.50359628 56.42166587 -12.625 54.1875 C-18.0071821 50.36017051 -22.960145 45.20679326 -25 38.78125 C-26.59451042 29.32808111 -27.12232208 18.35364508 -21.4375 10.1875 C-15.26163103 2.87397096 -9.35065592 0.05405003 0 0 Z " fill="#3C3C3C" transform="translate(596.4375,45.8125)"/>
<path d="M0 0 C0 -0.99 0 -1.98 0 -3 C0.66 -3 1.32 -3 2 -3 C2 2.94 2 8.88 2 15 C1.01 15 0.02 15 -1 15 C-1.23783203 14.11248047 -1.23783203 14.11248047 -1.48046875 13.20703125 C-3.01284039 8.01728642 -4.30274795 4.09818752 -9 1 C-12.37698072 0.60636421 -15.61819456 0.70450244 -19 1 C-18.85545066 7.25919617 -18.85545066 7.25919617 -15.9375 12.625 C-14.968125 13.40875 -13.99875 14.1925 -13 15 C-11.66587068 16.20745442 -10.33258884 17.41584567 -9 18.625 C-6.13864129 21.11524263 -3.27938515 23.08702533 0 25 C2.99942497 27.34399507 3.91255337 28.46053142 4.53125 32.27734375 C4.5209375 33.48519531 4.510625 34.69304687 4.5 35.9375 C4.5103125 37.14277344 4.520625 38.34804687 4.53125 39.58984375 C3.90833763 43.58839156 2.84711645 45.17293366 0 48 C-8.32552577 53.85808164 -18.4973142 52.52309352 -28.0625 51.21875 C-30.33748954 50.92520638 -30.33748954 50.92520638 -34 51 C-34 44.07 -34 37.14 -34 30 C-29 32 -29 32 -27.70703125 34.71484375 C-27.41183594 35.77832031 -27.11664063 36.84179688 -26.8125 37.9375 C-25.80103929 41.47976453 -25.05742583 43.91386125 -23 47 C-18.82339427 47.26518132 -15.95659266 47.31886422 -12 46 C-11.48447177 42.84954972 -11.26545167 41.04964205 -12 38 C-15.17338026 33.78321807 -19.21323307 30.49988638 -23.23828125 27.12109375 C-28.03671784 23.08173188 -32.25424733 19.48308792 -33.33984375 12.95703125 C-33.55084297 8.45852787 -32.87086283 5.44503539 -30 2 C-20.23748065 -5.32188951 -11.0506884 -3.52949744 0 0 Z " fill="#393939" transform="translate(380,49)"/>
<path d="M0 0 C3.5670943 0.31474361 4.95359737 0.95924638 7.6953125 3.3671875 C11.0886269 6.28506213 14.541813 7.55642893 18.75 8.9375 C35.50460221 14.83502753 35.50460221 14.83502753 40 22 C40.8430312 27.47970283 39.54969759 30.75366512 36.45703125 35.1328125 C31.34707648 41.68122639 31.34707648 41.68122639 25.75 42.44140625 C18.65085449 42.67453497 13.56136914 42.53989318 8 38 C0.82027007 31.20380266 -3.1606891 24.42576 -3.4375 14.4375 C-3.27783381 8.99607639 -2.30924629 4.90714837 0 0 Z " fill="#FDFAF9" transform="translate(265,46)"/>
<path d="M0 0 C-1.12451727 2.9719385 -2.22293791 5.33440687 -4 8 C-4.31680837 10.07475663 -4.31680837 10.07475663 -4.30859375 12.3515625 C-4.33373047 13.20363281 -4.35886719 14.05570313 -4.38476562 14.93359375 C-4.41946139 16.70436292 -4.4508042 18.47520151 -4.47851562 20.24609375 C-4.64302104 25.59853812 -5.46949983 29.94519705 -7.31225586 34.96777344 C-9.77322574 42.23973414 -8.59921606 49.62374829 -5.4375 56.4375 C-2.64228084 61.48757377 0.43961238 64.53410541 5 68 C5 68.66 5 69.32 5 70 C-4.76286159 71.10941609 -13.4538739 65.45759773 -21.6875 60.8125 C-22.29988525 60.46767578 -22.91227051 60.12285156 -23.54321289 59.76757812 C-27.87371004 57.25257992 -27.87371004 57.25257992 -29 55 C-30.42953822 40.00463701 -28.71708499 26.27263322 -20.1328125 13.58203125 C-15.38130076 7.82974323 -7.9441838 0 0 0 Z " fill="#E62E45" transform="translate(271,17)"/>
<path d="M0 0 C2.86125133 1.27166726 4.48787391 2.32492471 6.375 4.8125 C7.58422767 9.04479683 6.48897269 12.10029025 4.4375 15.875 C1.83237328 18.14613611 1.22523581 18.3670401 -2.0625 18.5 C-6 18 -6 18 -8 17 C-9.63983879 13.72032242 -9.17845638 10.62861311 -9 7 C-10.32 7 -11.64 7 -13 7 C-14.83241605 11.68888307 -15.32016954 15.93511633 -15.3359375 20.91796875 C-15.3459227 22.02655998 -15.3459227 22.02655998 -15.35610962 23.157547 C-15.36618142 24.7097425 -15.37092835 26.26198083 -15.37060547 27.81420898 C-15.37500705 30.19130635 -15.41145717 32.5665864 -15.44921875 34.94335938 C-15.45508245 36.45572284 -15.45905483 37.96809509 -15.4609375 39.48046875 C-15.47530853 40.18987106 -15.48967957 40.89927338 -15.50448608 41.63017273 C-15.474186 44.88564625 -15.44118924 46.54974054 -13.11181641 48.92700195 C-11.06221796 49.96838752 -9.25885645 50.59663278 -7 51 C-7 51.66 -7 52.32 -7 53 C-16.9 53 -26.8 53 -37 53 C-36.67 52.01 -36.34 51.02 -36 50 C-33.9375 49.3125 -33.9375 49.3125 -32 49 C-32.01938107 43.0728122 -32.07097742 37.14711727 -32.15258789 31.22045898 C-32.17579985 29.20394015 -32.19017109 27.18729953 -32.19555664 25.1706543 C-32.20482295 22.2731509 -32.24576132 19.37757141 -32.29296875 16.48046875 C-32.2890361 15.57725388 -32.28510345 14.674039 -32.28105164 13.74345398 C-32.33612538 11.38652073 -32.4120987 9.28360706 -33 7 C-35.41909895 5.04208431 -35.41909895 5.04208431 -38 4 C-38 3.01 -38 2.02 -38 1 C-31.07 1 -24.14 1 -17 1 C-16.34 2.65 -15.68 4.3 -15 6 C-14.05125 5.195625 -13.1025 4.39125 -12.125 3.5625 C-8.02605295 0.08730576 -5.4892692 -0.37215384 0 0 Z " fill="#3D3D3D" transform="translate(478,46)"/>
<path d="M0 0 C9.24 0 18.48 0 28 0 C28 0.99 28 1.98 28 3 C26.35 3 24.7 3 23 3 C24.45688525 12.03268858 27.36513851 20.44021437 30.36743164 29.05224609 C31.00599264 31.01845205 31.52212404 32.98927735 32 35 C32.66 35 33.32 35 34 35 C34.2475 33.741875 34.495 32.48375 34.75 31.1875 C35.56340387 27.43876914 36.72003725 24.00471038 38.125 20.4375 C39.91291739 15.60199614 40.89913282 12.12505707 40 7 C37.09587454 4.64677204 37.09587454 4.64677204 34 3 C34 2.01 34 1.02 34 0 C39.94 0 45.88 0 52 0 C51 4 51 4 49.16479492 6.67089844 C46.54328134 10.70235882 44.99854601 14.76425686 43.36328125 19.265625 C43.03837204 20.14023376 42.71346283 21.01484253 42.37870789 21.91595459 C41.34932574 24.69132966 40.33061558 27.47047462 39.3125 30.25 C38.28137092 33.04291147 37.24809549 35.83501956 36.2141571 38.62689209 C35.57319498 40.36003043 34.93430434 42.09393655 34.29768372 43.82867432 C34.01035873 44.60998718 33.72303375 45.39130005 33.42700195 46.19628906 C33.174814 46.88434631 32.92262604 47.57240356 32.66279602 48.28131104 C32 50 32 50 31 52 C28.36 52 25.72 52 23 52 C22.57702637 50.89599854 22.15405273 49.79199707 21.71826172 48.65454102 C20.13021647 44.51837677 18.52766032 40.38795862 16.92089844 36.2590332 C16.23046843 34.47896799 15.54386349 32.69741383 14.86132812 30.91430664 C9.37506404 15.82854161 9.37506404 15.82854161 0 3 C0 2.01 0 1.02 0 0 Z " fill="#3F3F3F" transform="translate(484,47)"/>
<path d="M0 0 C2.47640067 1.74208963 3.90626403 2.83698093 5.4375 5.5 C7.8756486 9.40103776 10.98599546 10.60235116 15.1875 12.25 C20.20848429 14.34484775 24.94292876 17.38594228 29 21 C31.22129694 26.81127179 30.1796891 32.97349153 28.1015625 38.6640625 C24.74760919 45.77634647 19.42277669 52.04248741 12 55 C9.49885323 55.36001355 7.53880295 55.26445864 5 55 C5.721875 54.34 6.44375 53.68 7.1875 53 C11.44055232 48.69834137 14.60302243 44.34216767 15.625 38.3125 C14.81450751 34.01688978 13.26694043 32.85469421 10 30 C6.8010204 28.06295072 6.8010204 28.06295072 3.3125 26.4375 C2.70325684 26.14157959 2.09401367 25.84565918 1.46630859 25.54077148 C-3.59348482 23.11443392 -8.74019 20.95121984 -14 19 C-13.86645304 14.39553295 -13.39762421 11.96085287 -10.05859375 8.69140625 C-8.8666792 7.63119497 -7.65906468 6.58840837 -6.4375 5.5625 C-5.82197266 5.02173828 -5.20644531 4.48097656 -4.57226562 3.92382812 C-3.061537 2.60047669 -1.53251703 1.29805684 0 0 Z " fill="#E88C4E" transform="translate(289,33)"/>
<path d="M0 0 C6.93 0 13.86 0 21 0 C22.19148936 34.87234043 22.19148936 34.87234043 22 49 C23.98 49.33 25.96 49.66 28 50 C28 50.66 28 51.32 28 52 C18.76 52 9.52 52 0 52 C0.33 51.01 0.66 50.02 1 49 C3.475 48.505 3.475 48.505 6 48 C5.98061893 42.0728122 5.92902258 36.14711727 5.84741211 30.22045898 C5.82420015 28.20394015 5.80982891 26.18729953 5.80444336 24.1706543 C5.79517705 21.2731509 5.75423868 18.37757141 5.70703125 15.48046875 C5.7109639 14.57725388 5.71489655 13.674039 5.71894836 12.74345398 C5.66387462 10.38652073 5.5879013 8.28360706 5 6 C2.58090105 4.04208431 2.58090105 4.04208431 0 3 C0 2.01 0 1.02 0 0 Z " fill="#373737" transform="translate(538,47)"/>
<path d="M0 0 C0.96808594 0.02835938 1.93617187 0.05671875 2.93359375 0.0859375 C3.90425781 0.09882812 4.87492187 0.11171875 5.875 0.125 C8.37109375 0.4609375 8.37109375 0.4609375 10.37109375 2.4609375 C10.59561601 5.18765656 10.69924535 7.80977008 10.70703125 10.5390625 C10.71368805 11.34325623 10.72034485 12.14744995 10.72720337 12.97601318 C10.73733963 14.68076285 10.74202009 16.38555226 10.74169922 18.09033203 C10.74605394 20.68719951 10.78230918 23.28234181 10.8203125 25.87890625 C10.82618435 27.53645254 10.83015128 29.19400688 10.83203125 30.8515625 C10.84640228 31.62365051 10.86077332 32.39573853 10.87557983 33.19122314 C10.82890122 38.75827809 9.44349593 42.38853532 5.37109375 46.4609375 C-1.88930687 46.92935044 -1.88930687 46.92935044 -4.50390625 45.2734375 C-8.99741347 38.03389808 -8.82958005 29.72307654 -8.87890625 21.4609375 C-8.89953125 20.59726563 -8.92015625 19.73359375 -8.94140625 18.84375 C-8.98252754 12.07929811 -7.57131645 7.96067366 -4.2890625 2.046875 C-2.62890625 0.4609375 -2.62890625 0.4609375 0 0 Z " fill="#F5F5F5" transform="translate(87.62890625,49.5390625)"/>
<path d="M0 0 C0 8.33333333 0 16.66666667 0 25 C-5.22168419 29.9145263 -10.53788106 32.70343659 -17.74609375 32.49609375 C-21.74552788 31.61580235 -24.36614433 29.02579848 -27 26 C-28.89128212 22.21743576 -28.59968324 18.11123045 -28 14 C-25.5720498 8.26019147 -20.46650657 6.01617165 -15 3.6875 C-12.67954803 2.75881034 -10.34633283 1.8612108 -8 1 C-6.3603125 0.39091797 -6.3603125 0.39091797 -4.6875 -0.23046875 C-2 -1 -2 -1 0 0 Z " fill="#404040" transform="translate(151,69)"/>
<path d="M0 0 C4.45536405 0.70510979 7.27652007 2.38589507 10.43359375 5.54296875 C14.40970262 11.71279286 15.24609375 15.86175164 15.24609375 23.35546875 C6.00609375 23.35546875 -3.23390625 23.35546875 -12.75390625 23.35546875 C-12.75390625 25.33546875 -12.75390625 27.31546875 -12.75390625 29.35546875 C-13.08390625 29.35546875 -13.41390625 29.35546875 -13.75390625 29.35546875 C-13.83554784 26.66734385 -13.89470293 23.98174575 -13.94140625 21.29296875 C-13.97911133 20.1647168 -13.97911133 20.1647168 -14.01757812 19.01367188 C-14.10354971 12.39385958 -12.33419749 8.21214908 -9.12890625 2.41796875 C-6.01635599 -0.28503542 -4.01998469 -0.24423552 0 0 Z " fill="#525252" transform="translate(420.75390625,45.64453125)"/>
<path d="M0 0 C1.9375 0.375 1.9375 0.375 4 1 C6.12771375 5.25542749 5.19935535 9.95463556 3.9375 14.375 C1.15460444 21.99545232 -3.94743129 28.18095691 -11 32.203125 C-14.1571439 33.46104952 -16.64204996 33.34978646 -20 33 C-19.278125 32.34 -18.55625 31.68 -17.8125 31 C-13.44215133 26.56739565 -9.84163935 22.0907994 -9.75 15.6875 C-9.43741899 9.06541349 -4.28575813 4.63208202 0 0 Z " fill="#E62945" transform="translate(314,55)"/>
<path d="M0 0 C3.98706759 0.96239562 5.60976469 2.16901959 8.625 4.875 C10.59490608 6.25862451 12.60724841 7.56111524 14.625 8.875 C14.295 9.535 13.965 10.195 13.625 10.875 C13.01914062 10.98972656 12.41328125 11.10445312 11.7890625 11.22265625 C8.76240664 12.13502363 7.83634988 13.7844853 6 16.3125 C4.27588319 18.6577506 2.68454327 20.81545673 0.625 22.875 C-0.3959375 21.76125 -0.3959375 21.76125 -1.4375 20.625 C-3.50771421 18.51326287 -5.48851207 17.20139805 -8.125 15.875 C-11.375 13.875 -11.375 13.875 -12.6875 11.5625 C-12.19049416 7.28824981 -9.42664522 4.75953131 -6.375 1.875 C-3.375 -0.125 -3.375 -0.125 0 0 Z " fill="#E74B4C" transform="translate(303.375,45.125)"/>
<path d="M0 0 C0.14505175 3.43705705 0.23398014 6.87333033 0.3125 10.3125 C0.3753418 11.77719727 0.3753418 11.77719727 0.43945312 13.27148438 C0.4852008 15.93399887 0.4734901 18.37877036 0 21 C-2.89855218 23.70856305 -4.18077415 24.01638452 -8.125 23.9375 C-11 23 -11 23 -12.875 21.4375 C-14.48306808 17.9533525 -14.53086838 14.73103271 -14 11 C-11.5940019 5.05576941 -6.44411535 0 0 0 Z " fill="#EDEDED" transform="translate(151,70)"/>
<path d="M0 0 C5.37200309 0.35034803 5.37200309 0.35034803 7.8125 2.875 C10.61357448 7.88744906 10.07283084 12.39202549 10 18 C4.72 18 -0.56 18 -6 18 C-6.57007708 10.70301336 -5.49655722 6.77918173 -1 1 C-0.67 0.67 -0.34 0.34 0 0 Z " fill="#EFEFEF" transform="translate(642,48)"/>
<path d="M0 0 C0.845625 -0.00773437 1.69125 -0.01546875 2.5625 -0.0234375 C5.53566509 0.46256064 6.89699332 1.22419771 9 3.375 C9.53125 5.53125 9.53125 5.53125 9.5 7.875 C9.5103125 8.6484375 9.520625 9.421875 9.53125 10.21875 C9 12.375 9 12.375 7.28515625 14.1328125 C4.62744308 15.57751812 2.94760945 15.77724081 -0.0625 15.75 C-0.91972656 15.75773437 -1.77695312 15.76546875 -2.66015625 15.7734375 C-5.49317219 15.29102076 -6.34503447 14.70229528 -8 12.375 C-8.65234375 10.21875 -8.65234375 10.21875 -8.9375 7.875 C-9.04964844 7.1015625 -9.16179688 6.328125 -9.27734375 5.53125 C-9 3.375 -9 3.375 -7.31640625 1.6171875 C-4.65767961 0.19142852 -3.00155251 -0.02745322 0 0 Z " fill="#3A3A3A" transform="translate(551,21.625)"/>
<path d="M0 0 C5.94 0 11.88 0 18 0 C17 4 17 4 15.265625 6.4140625 C11.7128561 11.51835705 9.9059523 17.59027915 7.75 23.375 C7.06164062 25.19451172 7.06164062 25.19451172 6.359375 27.05078125 C5.23284545 30.03139069 4.11330591 33.01443165 3 36 C1.68 35.67 0.36 35.34 -1 35 C-0.78794922 34.43603516 -0.57589844 33.87207031 -0.35742188 33.29101562 C0.60854965 30.69881512 1.55433249 28.09967285 2.5 25.5 C2.83386719 24.613125 3.16773438 23.72625 3.51171875 22.8125 C5.48994738 17.32190625 6.6806638 12.84454591 6 7 C3.09587454 4.64677204 3.09587454 4.64677204 0 3 C0 2.01 0 1.02 0 0 Z " fill="#515151" transform="translate(518,47)"/>
<path d="M0 0 C1.703125 1.08203125 1.703125 1.08203125 3 3 C3.40971773 7.69263371 3.12987347 12.28126391 3 17 C-1.62 17 -6.24 17 -11 17 C-11.48328635 6.0052356 -11.48328635 6.0052356 -9.4375 1.75 C-6.09433587 -0.6502204 -4.02376553 -0.58527499 0 0 Z " fill="#F5F5F5" transform="translate(419,49)"/>
<path d="M0 0 C6.52128184 -0.69375339 10.73643123 1.15675931 16 5 C20.90397388 9.44800667 23.77647946 13.47455713 25 20 C17.57657658 16.45045045 17.57657658 16.45045045 15 14.4375 C12.9799952 12.98562155 11.33849858 12.36206017 9 11.5625 C5.48973705 10.29436031 3.22817429 9.11944401 1 6 C0.25 2.75 0.25 2.75 0 0 Z " fill="#FCF5EE" transform="translate(292,33)"/>
<path d="M0 0 C5 2 5 2 6.29296875 4.71484375 C6.58816406 5.77832031 6.88335937 6.84179688 7.1875 7.9375 C8.19896071 11.47976453 8.94257417 13.91386125 11 17 C14.56769552 17.73606499 14.56769552 17.73606499 18 18 C17.67 18.99 17.34 19.98 17 21 C19.64 21 22.28 21 25 21 C25 21.33 25 21.66 25 22 C18.58437404 22.09769989 12.3026652 22.08672707 5.9375 21.21875 C3.66251046 20.92520638 3.66251046 20.92520638 0 21 C0 14.07 0 7.14 0 0 Z " fill="#636363" transform="translate(346,79)"/>
<path d="M0 0 C0.74893824 5.02858529 0.04120058 7.50800057 -3 11.625 C-6.77561811 16.07809797 -11.05097565 20.43157983 -17.0625 21.296875 C-19 21.3125 -19 21.3125 -22 21 C-21.2575 20.29875 -20.515 19.5975 -19.75 18.875 C-16.96208257 16.15157945 -16.96208257 16.15157945 -15.1875 13.125 C-12.63606636 9.4800948 -4.88328017 0 0 0 Z " fill="#E51444" transform="translate(316,67)"/>
<path d="M0 0 C3.4375 0.8125 3.4375 0.8125 5.4375 3.8125 C4.75042969 4.42738281 4.06335938 5.04226562 3.35546875 5.67578125 C2.45441406 6.48402344 1.55335938 7.29226562 0.625 8.125 C-0.71498047 9.32576172 -0.71498047 9.32576172 -2.08203125 10.55078125 C-3.96176786 12.26474581 -5.78842747 13.99127604 -7.5625 15.8125 C-10.28753243 14.84555301 -11.34590685 14.23365334 -12.6875 11.625 C-12.49112536 7.20657057 -9.68117588 4.76039125 -6.5625 1.8125 C-3.5625 -0.1875 -3.5625 -0.1875 0 0 Z " fill="#E7644E" transform="translate(303.5625,45.1875)"/>
<path d="M0 0 C2 1.375 2 1.375 4 3 C4 3.66 4 4.32 4 5 C2.42578125 6.48046875 2.42578125 6.48046875 0.3125 8.1875 C-4.08099314 11.91106334 -7.40299152 15.80598305 -10 21 C-11.32 20.34 -12.64 19.68 -14 19 C-13.86645304 14.39553295 -13.39762421 11.96085287 -10.05859375 8.69140625 C-8.8666792 7.63119497 -7.65906468 6.58840837 -6.4375 5.5625 C-5.82197266 5.02173828 -5.20644531 4.48097656 -4.57226562 3.92382812 C-3.061537 2.60047669 -1.53251703 1.29805684 0 0 Z " fill="#E99D52" transform="translate(289,33)"/>
<path d="M0 0 C7.51806849 -0.44032071 13.84224277 0.71387222 21 3 C21 2.01 21 1.02 21 0 C21.66 0 22.32 0 23 0 C23 5.94 23 11.88 23 18 C22.01 18 21.02 18 20 18 C19.76216797 17.11248047 19.76216797 17.11248047 19.51953125 16.20703125 C17.97682741 10.98229395 16.60280159 7.27310336 12 4 C9.26623795 3.3241815 6.83699531 3.144254 4 3 C4 2.34 4 1.68 4 1 C2.68 0.67 1.36 0.34 0 0 Z " fill="#4A4A4A" transform="translate(359,46)"/>
<path d="M0 0 C2.625 0.9375 2.625 0.9375 5 2 C4.06409496 3.1055189 3.12620142 4.20935453 2.1875 5.3125 C1.66542969 5.92738281 1.14335937 6.54226562 0.60546875 7.17578125 C-1 9 -1 9 -2.69921875 10.48046875 C-4.43353918 12.17307137 -4.43353918 12.17307137 -4 16 C-7.86695903 15.46292236 -9.97060499 14.41445371 -13 12 C-11.21135158 10.18443212 -9.41928379 8.37248378 -7.625 6.5625 C-7.11710937 6.04623047 -6.60921875 5.52996094 -6.0859375 4.99804688 C-2.2265625 1.11328125 -2.2265625 1.11328125 0 0 Z " fill="#E87D52" transform="translate(296,42)"/>
<path d="M0 0 C0.99 0.33 1.98 0.66 3 1 C3.33 3.97 3.66 6.94 4 10 C3.34 10 2.68 10 2 10 C1.34 8.68 0.68 7.36 0 6 C-0.45375 6.495 -0.9075 6.99 -1.375 7.5 C-3 9 -3 9 -5 9 C-5 8.34 -5 7.68 -5 7 C-5.99 7 -6.98 7 -8 7 C-8 6.34 -8 5.68 -8 5 C-6.865625 4.54625 -5.73125 4.0925 -4.5625 3.625 C-0.95278308 2.42904194 -0.95278308 2.42904194 0 0 Z " fill="#595959" transform="translate(35,90)"/>
<path d="M0 0 C3.96 0 7.92 0 12 0 C12.66 1.65 13.32 3.3 14 5 C14.99 4.34 15.98 3.68 17 3 C16.67 4.65 16.34 6.3 16 8 C14.35 8.33 12.7 8.66 11 9 C11 6.36 11 3.72 11 1 C7.37 1 3.74 1 0 1 C0 0.67 0 0.34 0 0 Z " fill="#868686" transform="translate(184,46)"/>
</svg>
